<svg xmlns="http://www.w3.org/2000/svg" viewBox="760.5 755.9 515.8 515.8" aria-hidden="true"><path fill="currentColor" d="M 801.11 1018.25 C 815.73 1017.46 833.14 1017.89 847.93 1017.9 C 877.31 1017.79 906.68 1018.01 936.06 1018.57 C 997.53 1019.47 1065.57 1019.78 1127.19 1018.86 C 1162.06 1018.03 1200.8 1018.55 1235.72 1018.87 C 1234.64 1070.7 1235.74 1123.34 1235.64 1175.2 C 1235.6 1196.71 1236.16 1215.41 1219.5 1231.25 C 1200.26 1249.52 1185.98 1248.15 1161.86 1248.16 L 940.63 1248.07 L 881.11 1248.03 C 858.03 1248 836.10 1251.08 818.40 1233.12 C 810.44 1224.94 805.00 1214.64 802.74 1203.45 C 800.47 1191.9 801.3 1159.11 801.23 1145.29 L 801.11 1018.25 z"/><path fill="#C9A84C" d="M 801.11 1018.25 C 815.73 1017.46 833.14 1017.89 847.93 1017.9 C 877.31 1017.79 906.68 1018.01 936.06 1018.57 C 997.53 1019.47 1065.57 1019.78 1127.19 1018.86 C 1127.25 1022.36 1127.26 1025.86 1127.2 1029.36 C 1126.07 1088.32 1075.9 1134.47 1017.23 1133.09 C 988.82 1132.56 961.82 1120.6 942.35 1099.89 C 920.10 1076.48 912.28 1050.23 912.95 1018.65 C 876.9 1018.63 836.84 1019.48 801.11 1018.25 z"/><path fill="currentColor" d="M 1225.38 779.30 C 1226.25 779.42 1225.63 779.27 1226.91 780.46 C 1227.37 785.19 1225.88 790.13 1225.21 794.88 C 1219.47 836.04 1212.82 877.29 1208.1 918.57 C 1197.13 907.83 1186.31 896.93 1175.66 885.87 C 1165.81 897.22 1148.35 913.38 1137.18 924.38 C 1113.06 948.3 1088.55 971.82 1063.66 994.94 C 1051.47 994.90 983.43 996.24 976.72 994.49 C 1027.81 943.21 1078.33 891.37 1128.27 838.97 C 1115.48 828.39 1102.82 817.66 1090.29 806.78 C 1104.89 803.14 1123.12 800.01 1138.08 796.97 L 1225.38 779.30 z"/></svg>
