<svg xmlns="http://www.w3.org/2000/svg" viewBox="1518.6 779.1 492.6 492.6" aria-hidden="true"><path fill="currentColor" d="M 1679.98 801.48 L 1845.62 801.93 L 1845.24 860.09 C 1876.12 860.54 1907.36 859.02 1938.2 860.37 C 1952.56 861.00 1960.43 879.51 1950.27 889.94 C 1943.13 897.27 1933.78 896.10 1924.29 896.15 C 1921.67 913.27 1919.9 946.46 1918.36 964.66 C 1914.8 1012.03 1910.77 1059.35 1906.29 1106.63 C 1904.04 1132.81 1904.92 1174.17 1890.56 1196.61 C 1881.69 1210.48 1866.15 1214.72 1850.72 1217.42 C 1851.14 1226.94 1852.55 1235.9 1845.86 1243.66 C 1839.76 1250.73 1829.43 1250.59 1822.98 1244.34 C 1816.61 1238.17 1818.1 1223.65 1818.11 1215.35 C 1782.12 1214.88 1746.12 1214.77 1710.13 1215.01 C 1710.06 1221.05 1710.56 1226.94 1710.18 1233.06 C 1709.32 1246.81 1692.39 1255.35 1682.62 1244.01 C 1676.05 1236.38 1677.39 1226.68 1677.76 1217.32 C 1627.33 1209.3 1627.77 1178.88 1624.64 1137.4 L 1620.22 1081 C 1615.34 1019.37 1609.38 957.57 1605.26 895.96 C 1598.01 895.54 1585.92 895.69 1580.49 890.85 C 1569.63 881.19 1575.17 861.41 1590.41 860.18 C 1600.84 859.34 1610.31 859.73 1620.52 859.77 L 1680.05 859.99 L 1679.98 801.48 z"/><path fill="#C9A84C" d="M 1679.98 801.48 L 1845.62 801.93 L 1845.24 860.09 L 1817.04 860.02 L 1708.02 860.18 L 1680.05 859.99 L 1679.98 801.48 z"/><path fill="var(--icon-bg,#fff)" d="M 1708.35 828.97 L 1817.08 828.89 L 1817.04 860.02 L 1708.02 860.18 L 1708.35 828.97 z"/></svg>
