<svg xmlns="http://www.w3.org/2000/svg" viewBox="1385 795.9 462.3 462.3" aria-hidden="true"><path fill="#C9A84C" d="M 1609.69 817.28 C 1650.11 813.02 1688.66 849.36 1688.91 889.39 C 1711.98 898.85 1726.73 907.81 1738.18 931.39 C 1745.09 945.62 1746.3 968.92 1740.75 983.51 C 1750.87 992.96 1759.87 1004.96 1765.41 1017.68 C 1774.3 1037.96 1774.74 1060.94 1766.65 1081.55 C 1750.97 1121.11 1710.32 1138.65 1670.93 1122.04 C 1661.29 1134.42 1655.14 1139.92 1641.59 1147.85 L 1654.71 1237.23 L 1625.71 1237.02 L 1578.29 1237.03 C 1582.26 1206.83 1587.2 1177.49 1590.69 1146.99 C 1577.63 1138.55 1571.21 1134.87 1562.67 1121.69 C 1532.75 1134.06 1507.2 1130.05 1482.74 1107.83 C 1467.39 1093.12 1460.29 1072.22 1459.84 1051.44 C 1459.19 1021.32 1472.47 1003.53 1492.29 983.17 C 1482.72 939.64 1500.66 904.61 1543.22 890.01 C 1546.87 850.22 1569.71 822.99 1609.69 817.28 z"/></svg>
